<?xml version="1.0" standalone="no"?>
<!DOCTYPE svg PUBLIC "-//W3C//DTD SVG 20010904//EN"
 "http://www.w3.org/TR/2001/REC-SVG-20010904/DTD/svg10.dtd">
<svg version="1.0" xmlns="http://www.w3.org/2000/svg"
 viewBox="0 0 2600.000000 2600.000000"
 preserveAspectRatio="xMidYMid meet">
<metadata>
Created by potrace 1.15, written by Peter Selinger 2001-2017
</metadata>
<g transform="translate(0.000000,2600.000000) scale(0.100000,-0.100000)"
fill="#000000" stroke="none">
<path d="M12315 20400 c-378 -1136 -690 -2070 -692 -2076 -2 -6 47 0 124 17
826 183 1640 185 2476 8 81 -18 150 -29 153 -26 3 3 -304 936 -683 2074 l-690
2068 -688 -2065z"/>
<path d="M8050 21118 c0 -16 858 -4215 868 -4246 7 -21 13 -17 97 59 312 283
654 534 1020 749 315 185 770 389 1128 506 81 27 147 51 146 54 0 4 -1693
1505 -3114 2763 -80 70 -145 122 -145 115z"/>
<path d="M16321 19683 l-1632 -1447 161 -53 c771 -253 1509 -683 2118 -1232
69 -63 114 -97 117 -89 8 24 873 4263 870 4266 -1 1 -737 -649 -1634 -1445z"/>
<path d="M4428 17495 c12 -19 2884 -3256 2887 -3253 2 2 24 68 50 148 254 779
688 1521 1253 2145 45 49 79 91 77 93 -10 10 -4273 877 -4267 867z"/>
<path d="M19475 17076 c-1133 -233 -2086 -429 -2118 -435 l-57 -12 88 -97
c567 -627 1005 -1378 1248 -2139 27 -84 52 -151 55 -150 4 1 646 724 1429
1607 782 883 1432 1615 1443 1628 l20 22 -24 -1 c-13 0 -951 -191 -2084 -423z"/>
<path d="M11825 17024 c-483 -132 -936 -332 -1335 -592 -681 -442 -1247 -1067
-1610 -1777 -265 -519 -420 -1042 -487 -1645 -21 -193 -24 -693 -5 -880 101
-975 452 -1816 1071 -2560 194 -233 517 -538 776 -732 628 -470 1406 -786
2170 -882 332 -42 797 -46 1100 -11 780 91 1516 367 2135 800 405 285 801 670
1094 1065 485 656 788 1444 878 2285 18 162 17 751 0 910 -23 201 -71 479
-113 649 -293 1175 -1027 2181 -2062 2828 -159 99 -526 286 -692 352 -274 110
-666 229 -686 209 -8 -9 -1478 -2590 -1486 -2610 -4 -10 327 -13 1620 -15
l1625 -3 -2499 -2505 c-1688 -1692 -2492 -2490 -2475 -2460 14 25 479 844
1035 1820 l1010 1775 -1355 3 c-745 1 -1354 4 -1354 6 0 2 392 892 871 1978
479 1085 875 1983 880 1996 11 27 9 27 -106 -4z"/>
<path d="M5158 13242 c-1132 -378 -2058 -689 -2058 -692 0 -5 4117 -1380 4131
-1380 3 0 -4 46 -17 103 -158 704 -184 1415 -78 2132 16 109 66 376 88 468 11
42 11 57 3 56 -7 0 -938 -310 -2069 -687z"/>
<path d="M18772 13909 c129 -605 163 -924 155 -1454 -7 -427 -39 -722 -123
-1114 -19 -90 -33 -165 -31 -167 4 -5 4127 1370 4127 1376 0 3 -924 313 -2052
689 -1129 376 -2059 686 -2067 689 -10 4 -13 -1 -9 -19z"/>
<path d="M5879 9244 c-789 -890 -1439 -1625 -1446 -1634 -10 -14 64 -2 390 65
2821 576 3863 789 3869 794 3 3 -34 51 -84 106 -388 430 -697 890 -951 1415
-117 241 -180 395 -272 663 l-71 208 -1435 -1617z"/>
<path d="M18687 10852 c-2 -4 -26 -72 -52 -152 -256 -779 -701 -1540 -1251
-2137 -67 -73 -81 -93 -67 -97 10 -3 945 -195 2078 -426 1133 -232 2088 -427
2123 -435 35 -7 62 -9 60 -5 -3 7 -668 758 -2605 2942 -155 175 -284 314 -286
310z"/>
<path d="M8912 8203 c-88 -415 -862 -4217 -860 -4223 3 -8 3250 2864 3256
2880 1 4 -26 15 -60 25 -35 9 -144 46 -242 82 -763 276 -1443 692 -2052 1256
l-32 29 -10 -49z"/>
<path d="M17000 8177 c-183 -172 -477 -402 -720 -564 -449 -299 -909 -524
-1418 -693 l-173 -58 1631 -1447 c898 -795 1633 -1445 1635 -1443 4 4 -869
4265 -875 4271 -3 3 -39 -27 -80 -66z"/>
<path d="M11622 6768 c3 -7 312 -935 688 -2063 375 -1127 685 -2053 689 -2057
3 -4 316 922 695 2058 378 1136 686 2067 683 2070 -2 3 -106 -16 -231 -41
-444 -89 -799 -121 -1256 -112 -404 8 -662 37 -1062 117 -224 46 -212 44 -206
28z"/>
</g>
</svg>
